<?xml version="1.0" encoding="iso-8859-1"?>
<!-- Generator: Adobe Illustrator 19.0.0, SVG Export Plug-In . SVG Version: 6.00 Build 0)  -->
<svg version="1.1" id="Layer_1" xmlns="http://www.w3.org/2000/svg" xmlns:xlink="http://www.w3.org/1999/xlink" x="0px" y="0px"
	 viewBox="0 0 512 512" style="enable-background:new 0 0 512 512;" xml:space="preserve">
<g>
	<g>
		<path d="M368.995,256L490.108,14.776c1.587-3.162,1.424-6.92-0.434-9.931S484.531,0,480.993,0h-133.61
			c-3.858,0-7.385,2.177-9.115,5.622l-123.41,245.801c-1.445,2.88-1.445,6.275,0,9.154l123.41,245.801
			c1.731,3.446,5.258,5.623,9.115,5.623h133.61c3.537,0,6.821-1.834,8.68-4.845c1.858-3.011,2.022-6.768,0.434-9.931L368.995,256z
			 M353.675,491.602L235.385,256l118.29-235.602H464.46L348.468,251.423c-1.446,2.88-1.446,6.275,0,9.154L464.46,491.602H353.675z"
			/>
	</g>
</g>
<g>
	<g>
		<path d="M297.141,497.224L176.029,256L297.141,14.776c1.587-3.162,1.424-6.92-0.435-9.931C294.848,1.834,291.564,0,288.026,0
			h-133.61c-3.856,0-7.384,2.177-9.115,5.622L21.891,251.423c-1.445,2.88-1.445,6.275,0,9.154l123.41,245.801
			c1.731,3.446,5.258,5.623,9.115,5.623h133.61c3.538,0,6.822-1.834,8.681-4.845S298.729,500.387,297.141,497.224z M160.709,491.602
			L42.419,256L160.709,20.398h110.785L155.501,251.423c-1.445,2.88-1.445,6.275,0,9.154l115.992,231.025H160.709z"/>
	</g>
</g>
<g>
	<g>
		<path d="M162.512,415.968l-3.241-6.456c-2.527-5.033-8.657-7.067-13.69-4.54c-5.034,2.528-7.067,8.657-4.54,13.691l3.241,6.456
			c1.791,3.566,5.387,5.626,9.123,5.626c1.538,0,3.1-0.349,4.567-1.086C163.006,427.131,165.039,421.003,162.512,415.968z"/>
	</g>
</g>
<g>
	<g>
		<path d="M142.883,376.873l-62.985-125.45c-2.528-5.033-8.658-7.066-13.691-4.538c-5.034,2.527-7.066,8.656-4.539,13.691
			l62.985,125.45c1.791,3.566,5.388,5.625,9.123,5.625c1.538,0,3.101-0.35,4.568-1.087
			C143.379,388.037,145.411,381.908,142.883,376.873z"/>
	</g>
</g>
<g>
</g>
<g>
</g>
<g>
</g>
<g>
</g>
<g>
</g>
<g>
</g>
<g>
</g>
<g>
</g>
<g>
</g>
<g>
</g>
<g>
</g>
<g>
</g>
<g>
</g>
<g>
</g>
<g>
</g>
</svg>
