<?xml version="1.0" encoding="iso-8859-1"?>
<!-- Generator: Adobe Illustrator 19.0.0, SVG Export Plug-In . SVG Version: 6.00 Build 0)  -->
<svg version="1.1" id="Layer_1" xmlns="http://www.w3.org/2000/svg" xmlns:xlink="http://www.w3.org/1999/xlink" x="0px" y="0px"
	 viewBox="0 0 512 512" style="enable-background:new 0 0 512 512;" xml:space="preserve">
<g>
	<g>
		<path d="M297.141,251.424L173.731,5.623C172,2.177,168.473,0,164.616,0H31.006c-3.537,0-6.821,1.834-8.68,4.845
			s-2.023,6.768-0.435,9.931L143.005,256L21.891,497.224c-1.587,3.162-1.424,6.92,0.434,9.931S27.468,512,31.006,512h133.61
			c3.858,0,7.385-2.177,9.115-5.622l123.41-245.801C298.588,257.697,298.588,254.303,297.141,251.424z M158.324,491.602H47.539
			l115.992-231.024c1.446-2.88,1.446-6.275,0-9.154L47.539,20.398h110.785L276.615,256L158.324,491.602z"/>
	</g>
</g>
<g>
	<g>
		<path d="M490.108,251.424L366.698,5.623C364.967,2.177,361.44,0,357.583,0h-133.61c-3.538,0-6.822,1.834-8.681,4.845
			c-1.858,3.011-2.023,6.768-0.435,9.931L335.971,256L214.858,497.224c-1.587,3.162-1.424,6.92,0.435,9.931
			c1.858,3.011,5.142,4.845,8.681,4.845h133.61c3.857,0,7.384-2.177,9.115-5.622l123.41-245.801
			C491.555,257.697,491.555,254.303,490.108,251.424z M351.291,491.602H240.506l115.992-231.024c1.446-2.88,1.446-6.275,0-9.154
			L240.506,20.398h110.785L469.58,256L351.291,491.602z"/>
	</g>
</g>
<g>
	<g>
		<path d="M370.959,93.335l-3.242-6.456c-2.528-5.033-8.657-7.065-13.691-4.538c-5.033,2.528-7.066,8.657-4.538,13.691l3.242,6.456
			c1.791,3.566,5.387,5.625,9.122,5.625c1.538,0,3.101-0.35,4.569-1.087C371.455,104.498,373.488,98.369,370.959,93.335z"/>
	</g>
</g>
<g>
	<g>
		<path d="M450.33,251.423l-62.985-125.449c-2.527-5.032-8.654-7.063-13.691-4.538c-5.033,2.527-7.066,8.657-4.538,13.691
			l62.985,125.449c1.79,3.566,5.387,5.625,9.122,5.625c1.538,0,3.1-0.349,4.569-1.087
			C450.826,262.587,452.859,256.457,450.33,251.423z"/>
	</g>
</g>
<g>
</g>
<g>
</g>
<g>
</g>
<g>
</g>
<g>
</g>
<g>
</g>
<g>
</g>
<g>
</g>
<g>
</g>
<g>
</g>
<g>
</g>
<g>
</g>
<g>
</g>
<g>
</g>
<g>
</g>
</svg>
